<svg width="7" height="11" viewBox="0 0 7 11" fill="none" xmlns="http://www.w3.org/2000/svg">
<path d="M1 1.78259L2.56201 10.1416" stroke="white" stroke-width="0.1" stroke-linecap="round" stroke-linejoin="round"/>
<path d="M2.56201 10.1416L6.74002 9.35962" stroke="white" stroke-width="0.1" stroke-linecap="round" stroke-linejoin="round"/>
<path d="M6.73996 9.35938L5.17896 0.99939" stroke="white" stroke-width="0.1" stroke-linecap="round" stroke-linejoin="round"/>
<path d="M5.17902 1.00024L1 1.7832" stroke="white" stroke-width="0.1" stroke-linecap="round" stroke-linejoin="round"/>
<path fill-rule="evenodd" clip-rule="evenodd" d="M1 1.78357L5.17902 1.00061L6.74002 9.3606L2.56201 10.1426L1 1.78357Z" fill="#F87E05"/>
<path fill-rule="evenodd" clip-rule="evenodd" d="M1.77698 1.68604L2.13098 3.58301L3.31299 3.35901L2.95898 1.46503L1.77698 1.68604Z" fill="white"/>
<path d="M1.77698 1.68604L2.13098 3.58301" stroke="#AAAAAA" stroke-width="0.1" stroke-linecap="round" stroke-linejoin="round"/>
<path d="M2.13098 3.58301L3.31299 3.35901" stroke="#AAAAAA" stroke-width="0.1" stroke-linecap="round" stroke-linejoin="round"/>
<path d="M3.31299 3.35938L2.95898 1.46539" stroke="#AAAAAA" stroke-width="0.1" stroke-linecap="round" stroke-linejoin="round"/>
<path d="M2.95898 1.46552L1.77698 1.68652" stroke="#AAAAAA" stroke-width="0.1" stroke-linecap="round" stroke-linejoin="round"/>
<path fill-rule="evenodd" clip-rule="evenodd" d="M3.31299 3.35938L3.63397 3.29938L3.27899 1.40637L2.95898 1.46539L3.31299 3.35938Z" fill="white"/>
<path d="M3.31299 3.35938L3.63397 3.29938" stroke="#AAAAAA" stroke-width="0.1" stroke-linecap="round" stroke-linejoin="round"/>
<path d="M3.63403 3.29883L3.27905 1.40582" stroke="#AAAAAA" stroke-width="0.1" stroke-linecap="round" stroke-linejoin="round"/>
<path d="M3.27899 1.40582L2.95898 1.46484" stroke="#AAAAAA" stroke-width="0.1" stroke-linecap="round" stroke-linejoin="round"/>
<path d="M2.95898 1.46539L3.31299 3.35938" stroke="#AAAAAA" stroke-width="0.1" stroke-linecap="round" stroke-linejoin="round"/>
<path fill-rule="evenodd" clip-rule="evenodd" d="M2.17102 3.80127L2.52499 5.69727L3.71002 5.47626L3.35602 3.58026L2.17102 3.80127Z" fill="white"/>
<path d="M2.17102 3.80029L2.52499 5.69629" stroke="#AAAAAA" stroke-width="0.1" stroke-linecap="round" stroke-linejoin="round"/>
<path d="M2.5249 5.69629L3.70993 5.47528" stroke="#AAAAAA" stroke-width="0.1" stroke-linecap="round" stroke-linejoin="round"/>
<path d="M3.70996 5.47559L3.35596 3.57959" stroke="#AAAAAA" stroke-width="0.1" stroke-linecap="round" stroke-linejoin="round"/>
<path d="M3.35602 3.57977L2.17102 3.80078" stroke="#AAAAAA" stroke-width="0.1" stroke-linecap="round" stroke-linejoin="round"/>
<path fill-rule="evenodd" clip-rule="evenodd" d="M3.70996 5.47559L4.03094 5.41663L3.67593 3.51959L3.35596 3.57959L3.70996 5.47559Z" fill="white"/>
<path d="M3.70996 5.47559L4.03094 5.41663" stroke="#AAAAAA" stroke-width="0.1" stroke-linecap="round" stroke-linejoin="round"/>
<path d="M4.03104 5.41602L3.67603 3.51898" stroke="#AAAAAA" stroke-width="0.1" stroke-linecap="round" stroke-linejoin="round"/>
<path d="M3.67593 3.5191L3.35596 3.5791" stroke="#AAAAAA" stroke-width="0.1" stroke-linecap="round" stroke-linejoin="round"/>
<path d="M3.35596 3.57959L3.70996 5.47559" stroke="#AAAAAA" stroke-width="0.1" stroke-linecap="round" stroke-linejoin="round"/>
<path fill-rule="evenodd" clip-rule="evenodd" d="M2.56799 5.91754L2.92197 7.81152L4.10696 7.59052L3.75299 5.69653L2.56799 5.91754Z" fill="white"/>
<path d="M2.56799 5.91754L2.92197 7.81152" stroke="#AAAAAA" stroke-width="0.1" stroke-linecap="round" stroke-linejoin="round"/>
<path d="M2.922 7.81152L4.10699 7.59052" stroke="#AAAAAA" stroke-width="0.1" stroke-linecap="round" stroke-linejoin="round"/>
<path d="M4.1069 7.58984L3.75293 5.69586" stroke="#AAAAAA" stroke-width="0.1" stroke-linecap="round" stroke-linejoin="round"/>
<path d="M3.75299 5.69598L2.56799 5.91699" stroke="#AAAAAA" stroke-width="0.1" stroke-linecap="round" stroke-linejoin="round"/>
<path fill-rule="evenodd" clip-rule="evenodd" d="M4.1069 7.58984L4.42691 7.52985L4.07291 5.63684L3.75293 5.69586L4.1069 7.58984Z" fill="white"/>
<path d="M4.10693 7.58984L4.42694 7.52985" stroke="#AAAAAA" stroke-width="0.1" stroke-linecap="round" stroke-linejoin="round"/>
<path d="M4.427 7.53027L4.073 5.63727" stroke="#AAAAAA" stroke-width="0.1" stroke-linecap="round" stroke-linejoin="round"/>
<path d="M4.07291 5.63727L3.75293 5.69629" stroke="#AAAAAA" stroke-width="0.1" stroke-linecap="round" stroke-linejoin="round"/>
<path d="M3.75293 5.69586L4.1069 7.58984" stroke="#AAAAAA" stroke-width="0.1" stroke-linecap="round" stroke-linejoin="round"/>
<path fill-rule="evenodd" clip-rule="evenodd" d="M2.95605 8.00146L3.31104 9.89551L4.49503 9.67346L4.14105 7.77747L2.95605 8.00146Z" fill="white"/>
<path d="M2.95605 8.00146L3.31104 9.89551" stroke="#AAAAAA" stroke-width="0.1" stroke-linecap="round" stroke-linejoin="round"/>
<path d="M3.31104 9.89551L4.49503 9.67346" stroke="#AAAAAA" stroke-width="0.1" stroke-linecap="round" stroke-linejoin="round"/>
<path d="M4.49496 9.67285L4.14099 7.77686" stroke="#AAAAAA" stroke-width="0.1" stroke-linecap="round" stroke-linejoin="round"/>
<path d="M4.14105 7.77698L2.95605 8.00098" stroke="#AAAAAA" stroke-width="0.1" stroke-linecap="round" stroke-linejoin="round"/>
<path fill-rule="evenodd" clip-rule="evenodd" d="M4.49496 9.67285L4.81598 9.61389L4.46097 7.7179L4.14099 7.77686L4.49496 9.67285Z" fill="white"/>
<path d="M4.495 9.67285L4.81601 9.61389" stroke="#AAAAAA" stroke-width="0.1" stroke-linecap="round" stroke-linejoin="round"/>
<path d="M4.81595 9.61426L4.46094 7.71826" stroke="#AAAAAA" stroke-width="0.1" stroke-linecap="round" stroke-linejoin="round"/>
<path d="M4.46097 7.71838L4.14099 7.77734" stroke="#AAAAAA" stroke-width="0.1" stroke-linecap="round" stroke-linejoin="round"/>
<path d="M4.14099 7.77686L4.49496 9.67285" stroke="#AAAAAA" stroke-width="0.1" stroke-linecap="round" stroke-linejoin="round"/>
</svg>
