<svg width="7" height="6" viewBox="0 0 7 6" fill="none" xmlns="http://www.w3.org/2000/svg">
<path fill-rule="evenodd" clip-rule="evenodd" d="M6.09406 2.77136L5.46207 1.56732L5.01706 1.80231L4.59506 1.00031L3.25708 1.70331L3.67908 2.50531L3.23108 2.74036L3.86606 3.94531L6.09406 2.77136Z" fill="#F87E05"/>
<path d="M6.09402 2.77148L5.46204 1.56744" stroke="white" stroke-width="0.1" stroke-linecap="round" stroke-linejoin="round"/>
<path d="M5.46198 1.56775L5.01697 1.80273" stroke="white" stroke-width="0.1" stroke-linecap="round" stroke-linejoin="round"/>
<path d="M5.01697 1.80273L4.59497 1.00073" stroke="white" stroke-width="0.1" stroke-linecap="round" stroke-linejoin="round"/>
<path d="M4.59494 1.00012L3.25696 1.70312" stroke="white" stroke-width="0.1" stroke-linecap="round" stroke-linejoin="round"/>
<path d="M3.25696 1.70386L3.67896 2.50586" stroke="white" stroke-width="0.1" stroke-linecap="round" stroke-linejoin="round"/>
<path d="M3.67908 2.50519L3.23108 2.74023" stroke="white" stroke-width="0.1" stroke-linecap="round" stroke-linejoin="round"/>
<path d="M3.23108 2.74036L3.86606 3.94531" stroke="white" stroke-width="0.1" stroke-linecap="round" stroke-linejoin="round"/>
<path d="M3.86597 3.94531L6.09396 2.77136" stroke="white" stroke-width="0.1" stroke-linecap="round" stroke-linejoin="round"/>
<path d="M3.67908 2.50586L5.01706 1.80286" stroke="white" stroke-width="0.1" stroke-linecap="round" stroke-linejoin="round"/>
<path d="M3.54895 3.34375L5.77994 2.16974" stroke="white" stroke-width="0.1" stroke-linecap="round" stroke-linejoin="round"/>
<path d="M3.85205 3.91992L6.08304 2.74695" stroke="white" stroke-width="0.1" stroke-linecap="round" stroke-linejoin="round"/>
<path fill-rule="evenodd" clip-rule="evenodd" d="M3.866 3.94513L3.23102 2.74017L2.78601 2.97516L2.36401 2.17316L1.026 2.87616L1.448 3.67816L1 3.91412L1.63501 5.11816L3.866 3.94513Z" fill="#F87E05"/>
<path d="M3.86606 3.94531L3.23108 2.74036" stroke="white" stroke-width="0.1" stroke-linecap="round" stroke-linejoin="round"/>
<path d="M3.23102 2.7406L2.78601 2.97559" stroke="white" stroke-width="0.1" stroke-linecap="round" stroke-linejoin="round"/>
<path d="M2.78601 2.97559L2.36401 2.17358" stroke="white" stroke-width="0.1" stroke-linecap="round" stroke-linejoin="round"/>
<path d="M2.36401 2.17395L1.026 2.87695" stroke="white" stroke-width="0.1" stroke-linecap="round" stroke-linejoin="round"/>
<path d="M1.026 2.87573L1.448 3.67773" stroke="white" stroke-width="0.1" stroke-linecap="round" stroke-linejoin="round"/>
<path d="M1.448 3.6781L1 3.91406" stroke="white" stroke-width="0.1" stroke-linecap="round" stroke-linejoin="round"/>
<path d="M1 3.91412L1.63501 5.11816" stroke="white" stroke-width="0.1" stroke-linecap="round" stroke-linejoin="round"/>
<path d="M1.63501 5.11816L3.866 3.94513" stroke="white" stroke-width="0.1" stroke-linecap="round" stroke-linejoin="round"/>
<path d="M1.448 3.67773L2.78601 2.97473" stroke="white" stroke-width="0.1" stroke-linecap="round" stroke-linejoin="round"/>
<path d="M1.31799 4.51758L3.54898 3.3446" stroke="white" stroke-width="0.1" stroke-linecap="round" stroke-linejoin="round"/>
<path d="M1.62097 5.09375L3.85199 3.91974" stroke="white" stroke-width="0.1" stroke-linecap="round" stroke-linejoin="round"/>
</svg>
